<svg width="29" height="31" viewBox="0 0 29 31" fill="none" xmlns="http://www.w3.org/2000/svg">
<path d="M26.125 12.9167C26.125 21.9583 14.5 29.7083 14.5 29.7083C14.5 29.7083 2.875 21.9583 2.875 12.9167C2.875 9.83352 4.09977 6.87665 6.27988 4.69654C8.45999 2.51643 11.4169 1.29166 14.5 1.29166C17.5831 1.29166 20.54 2.51643 22.7201 4.69654C24.9002 6.87665 26.125 9.83352 26.125 12.9167Z" stroke="white" stroke-width="4" stroke-linecap="round" stroke-linejoin="round"/>
<path d="M14.5 16.7917C16.6401 16.7917 18.375 15.0568 18.375 12.9167C18.375 10.7766 16.6401 9.04166 14.5 9.04166C12.3599 9.04166 10.625 10.7766 10.625 12.9167C10.625 15.0568 12.3599 16.7917 14.5 16.7917Z" stroke="white" stroke-width="4" stroke-linecap="round" stroke-linejoin="round"/>
</svg>
